<?xml version="1.0" standalone="no"?>
<!DOCTYPE svg PUBLIC "-//W3C//DTD SVG 20010904//EN"
 "http://www.w3.org/TR/2001/REC-SVG-20010904/DTD/svg10.dtd">
<svg version="1.0" xmlns="http://www.w3.org/2000/svg"
 width="220.000000pt" height="220.000000pt" viewBox="0 0 220.000000 220.000000"
 preserveAspectRatio="xMidYMid meet">
<metadata>
Created by potrace 1.11, written by Peter Selinger 2001-2013
</metadata>
<g transform="translate(0.000000,220.000000) scale(0.100000,-0.100000)"
fill="#000000" stroke="none">
<path d="M990 2086 c-55 -15 -88 -32 -210 -106 -52 -32 -160 -95 -240 -140
-80 -46 -161 -95 -180 -109 -72 -53 -120 -119 -149 -204 -18 -53 -20 -84 -20
-410 0 -370 3 -398 47 -488 42 -85 99 -133 282 -236 19 -11 98 -58 175 -103
200 -119 216 -128 265 -145 116 -41 225 -27 352 44 45 26 151 87 233 135 83
49 181 106 218 128 114 66 185 155 216 272 6 24 10 176 10 387 0 284 -3 358
-15 401 -30 104 -89 180 -188 243 -30 19 -57 35 -60 35 -3 0 -46 25 -97 55
-50 30 -93 55 -95 55 -1 0 -50 29 -109 65 -58 36 -125 75 -148 87 -92 46 -196
59 -287 34z"/>
</g>
</svg>
